<svg width="21" height="18" viewBox="0 0 21 18" fill="none" xmlns="http://www.w3.org/2000/svg">
<path d="M17.9049 4.74235C18.2423 4.61954 18.4162 4.24664 18.2934 3.90923L17.1818 0.855232C16.9363 0.180664 16.1901 -0.167265 15.5156 0.0782573L0.856366 5.41377C0.181798 5.65929 -0.166131 6.40543 0.0793918 7.08L1.19096 10.134C1.31376 10.4714 1.68666 10.6453 2.02407 10.5225C2.69864 10.277 3.44477 10.6249 3.6903 11.2995C3.93582 11.974 3.58789 12.7202 2.91332 12.9657C2.57592 13.0885 2.40203 13.4614 2.52484 13.7988L3.6364 16.8528C3.88192 17.5274 4.62806 17.8753 5.30263 17.6298L19.9618 12.2943C20.6364 12.0487 20.9843 11.3026 20.7388 10.628L19.6272 7.57403C19.5044 7.23663 19.1315 7.06274 18.7941 7.18555C18.1196 7.43107 17.3734 7.08314 17.1279 6.40857C16.8824 5.734 17.2303 4.98787 17.9049 4.74235ZM18.5991 8.55006L19.5172 11.0727L15.2416 12.6289L14.5747 10.7965L13.3531 11.2411L14.02 13.0735L4.858 16.4082L3.93985 13.8856C5.12102 13.0691 5.41705 11.4498 4.60052 10.2684C4.06581 9.49492 3.1553 9.07014 2.21915 9.15798L1.30099 6.63537L10.463 3.30068L11.1299 5.13308L12.3515 4.68845L11.6846 2.85605L15.9602 1.29986L16.8784 3.82246C15.6972 4.63891 15.4012 6.25819 16.2177 7.4396C16.7524 8.21311 17.6629 8.6379 18.5991 8.55006Z" fill="black" fill-opacity="0.35"/>
</svg>
