<svg width="12" height="11" viewBox="0 0 12 11" fill="none" xmlns="http://www.w3.org/2000/svg">
<path d="M8.66602 0.541504L5.95768 2.70817L3.24935 0.541504M3.14102 10.2915H8.77435C9.68443 10.2915 10.1395 10.2915 10.4871 10.1144C10.7928 9.9586 11.0414 9.71 11.1972 9.40424C11.3743 9.05663 11.3743 8.60159 11.3743 7.6915V5.30817C11.3743 4.39809 11.3743 3.94304 11.1972 3.59544C11.0414 3.28967 10.7928 3.04108 10.4871 2.88529C10.1395 2.70817 9.68443 2.70817 8.77435 2.70817H3.14102C2.23093 2.70817 1.77589 2.70817 1.42828 2.88529C1.12252 3.04108 0.873924 3.28967 0.71813 3.59544C0.541016 3.94304 0.541016 4.39809 0.541016 5.30817V7.6915C0.541016 8.60159 0.541016 9.05663 0.71813 9.40424C0.873924 9.71 1.12252 9.9586 1.42828 10.1144C1.77589 10.2915 2.23093 10.2915 3.14102 10.2915Z" stroke="black" stroke-opacity="0.5" stroke-width="1.08333" stroke-linecap="round" stroke-linejoin="round"/>
</svg>
