<svg width="17" height="17" viewBox="0 0 17 17" fill="none" xmlns="http://www.w3.org/2000/svg">
<path d="M14.1754 6.7501H2.02539M10.8004 1.3501V4.0501M5.40039 1.3501V4.0501M5.26539 14.8501H10.9354C12.0695 14.8501 12.6365 14.8501 13.0697 14.6294C13.4507 14.4352 13.7605 14.1255 13.9547 13.7444C14.1754 13.3113 14.1754 12.7442 14.1754 11.6101V5.9401C14.1754 4.80599 14.1754 4.23894 13.9547 3.80577C13.7605 3.42474 13.4507 3.11495 13.0697 2.92081C12.6365 2.7001 12.0695 2.7001 10.9354 2.7001H5.26539C4.13128 2.7001 3.56423 2.7001 3.13106 2.92081C2.75003 3.11495 2.44025 3.42474 2.2461 3.80577C2.02539 4.23894 2.02539 4.80599 2.02539 5.9401V11.6101C2.02539 12.7442 2.02539 13.3113 2.2461 13.7444C2.44025 14.1255 2.75003 14.4352 3.13106 14.6294C3.56423 14.8501 4.13128 14.8501 5.26539 14.8501Z" stroke="black" stroke-opacity="0.5" stroke-width="1.35" stroke-linecap="round" stroke-linejoin="round"/>
</svg>
