<svg width="17" height="17" viewBox="0 0 17 17" fill="none" xmlns="http://www.w3.org/2000/svg">
<g clip-path="url(#clip0_421_15118)">
<path d="M14.1754 6.7498C14.1754 11.4748 8.10039 15.5248 8.10039 15.5248C8.10039 15.5248 2.02539 11.4748 2.02539 6.7498C2.02539 5.13861 2.66543 3.59341 3.80472 2.45413C4.944 1.31485 6.4892 0.674805 8.10039 0.674805C9.71158 0.674805 11.2568 1.31485 12.3961 2.45413C13.5353 3.59341 14.1754 5.13861 14.1754 6.7498Z" stroke="black" stroke-opacity="0.5" stroke-width="1.51875" stroke-linecap="round" stroke-linejoin="round"/>
<path d="M8.10039 8.77481C9.21877 8.77481 10.1254 7.86818 10.1254 6.7498C10.1254 5.63143 9.21877 4.7248 8.10039 4.7248C6.98201 4.7248 6.07539 5.63143 6.07539 6.7498C6.07539 7.86818 6.98201 8.77481 8.10039 8.77481Z" stroke="black" stroke-opacity="0.5" stroke-width="1.51875" stroke-linecap="round" stroke-linejoin="round"/>
</g>
<defs>
<clipPath id="clip0_421_15118">
<rect width="16.2" height="16.2" fill="white"/>
</clipPath>
</defs>
</svg>
