<svg width="1576" height="707" viewBox="0 0 1576 707" fill="none" xmlns="http://www.w3.org/2000/svg">
<path d="M550.765 573.462L666.265 0H789.034L905.342 573.462H811.649L785.803 435.346H666.265L641.226 573.462H550.765ZM679.188 361.846H772.88L726.034 92.8846L679.188 361.846Z" fill="white"/>
<path d="M944.193 706.731V162.346H1033.04V209.192C1049.73 171.5 1076.92 152.654 1114.62 152.654C1136.15 152.654 1155.81 159.654 1173.58 173.654C1191.35 187.115 1205.62 209.731 1216.39 241.5C1227.15 272.731 1232.54 315 1232.54 368.308C1232.54 421.077 1227.15 463.346 1216.39 495.115C1205.62 526.346 1191.08 548.962 1172.77 562.962C1155 576.423 1135.08 583.154 1113 583.154C1096.31 583.154 1081.23 579.654 1067.77 572.654C1054.85 565.115 1043.81 553.539 1034.65 537.923V706.731H944.193ZM1034.65 425.654C1034.65 459.038 1039.77 481.923 1050 494.308C1060.23 506.692 1072.89 512.885 1087.96 512.885C1105.19 512.885 1118.12 505.346 1126.73 490.269C1135.89 474.654 1140.46 449.615 1140.46 415.154V320.654C1140.46 286.192 1135.89 261.154 1126.73 245.538C1118.12 229.923 1105.19 222.115 1087.96 222.115C1072.89 222.115 1060.23 228.038 1050 239.885C1039.77 251.731 1034.65 273.538 1034.65 305.308V425.654Z" fill="white"/>
<path d="M1287.3 706.731V162.346H1376.15V209.192C1392.84 171.5 1420.04 152.654 1457.73 152.654C1479.27 152.654 1498.92 159.654 1516.69 173.654C1534.46 187.115 1548.73 209.731 1559.5 241.5C1570.27 272.731 1575.65 315 1575.65 368.308C1575.65 421.077 1570.27 463.346 1559.5 495.115C1548.73 526.346 1534.19 548.962 1515.88 562.962C1498.11 576.423 1478.19 583.154 1456.11 583.154C1439.42 583.154 1424.34 579.654 1410.88 572.654C1397.96 565.115 1386.92 553.539 1377.77 537.923V706.731H1287.3ZM1377.77 425.654C1377.77 459.038 1382.88 481.923 1393.11 494.308C1403.34 506.692 1416 512.885 1431.07 512.885C1448.3 512.885 1461.23 505.346 1469.84 490.269C1479 474.654 1483.57 449.615 1483.57 415.154V320.654C1483.57 286.192 1479 261.154 1469.84 245.538C1461.23 229.923 1448.3 222.115 1431.07 222.115C1416 222.115 1403.34 228.038 1393.11 239.885C1382.88 251.731 1377.77 273.538 1377.77 305.308V425.654Z" fill="white"/>
<path d="M0 93.6141C0 66.7679 0 53.3448 5.59992 45.9455C10.4784 39.4994 17.9351 35.5104 26.007 35.0287C35.2725 34.4757 46.446 41.9215 68.7931 56.8131L359.604 250.603C378.069 262.908 387.301 269.06 390.519 276.815C393.331 283.594 393.331 291.214 390.519 297.993C387.301 305.748 378.069 311.9 359.604 324.205L68.793 517.995C46.446 532.886 35.2725 540.332 26.007 539.779C17.9351 539.297 10.4784 535.308 5.59992 528.862C0 521.463 0 508.04 0 481.194V93.6141Z" fill="#FF0000"/>
</svg>
