<?xml version="1.0" encoding="UTF-8" standalone="no"?>
<!DOCTYPE svg PUBLIC "-//W3C//DTD SVG 1.1//EN" "http://www.w3.org/Graphics/SVG/1.1/DTD/svg11.dtd">
<svg width="100%" height="100%" viewBox="0 0 479 479" version="1.1" xmlns="http://www.w3.org/2000/svg" xmlns:xlink="http://www.w3.org/1999/xlink" xml:space="preserve" xmlns:serif="http://www.serif.com/" style="fill-rule:evenodd;clip-rule:evenodd;stroke-linejoin:round;stroke-miterlimit:2;">
    <g transform="matrix(1,0,0,1,-1514.021852,-999.98948)">
        <g>
            <g transform="matrix(1,0,0,1,1512,998)">
                <path d="M215.499,2.483C229.719,2.041 233.154,1.702 267.505,2.35C268.294,2.557 268.147,3.361 274.506,3.44C277.46,4.397 277.452,4.178 280.537,4.435C314.834,11.208 330.401,18.195 330.598,18.228C331.591,18.595 332.583,18.961 333.576,19.328C333.719,19.434 334.662,20.133 335.578,20.3C336.252,20.626 336.927,20.952 337.602,21.278C338.274,21.601 338.946,21.923 339.618,22.246C341.499,23.14 341.411,23.253 342.55,23.432C343.069,23.812 343.375,24.037 349.661,27.176C359.291,31.984 359.053,32.303 368.606,37.31C369.496,38.074 369.462,38.115 370.628,38.228L371.566,38.39C371.935,39.009 372.304,39.627 372.673,40.246L373.64,41.285C375.717,42.24 375.6,42.308 376.544,42.454C378.332,44.259 393.893,55.191 394.472,55.546C394.949,57.546 395.559,57.045 395.756,57.212C395.962,57.385 395.701,57.846 395.92,58.001C396.378,58.322 397.077,58.138 397.534,58.46C397.902,58.73 398.27,59 398.638,59.271C399.035,59.733 398.243,59.854 398.648,60.326C399.021,60.759 399.177,60.02 399.599,60.389C399.82,60.581 399.492,61.075 399.719,61.26C399.987,61.476 400.483,61.104 400.751,61.321C402.42,63.153 402.293,63.257 404.527,64.459C405.197,65.127 405.868,65.794 406.539,66.462C407.494,67.427 413.308,73.297 418.503,78.497C419.029,80.341 419.497,79.949 419.777,80.228C420.404,80.6 421.031,80.972 421.658,81.343C421.797,83.103 421.706,83.131 421.808,83.244C422.022,83.483 422.551,83.103 422.765,83.342C425.428,86.225 425.306,86.223 425.548,86.454C425.929,88.024 425.934,88.116 427.516,88.489C428.382,90.082 428.256,90.098 429.54,91.464C430.247,94.008 431.593,94.24 431.703,94.369C433.568,96.171 433.401,96.292 433.578,96.427C433.922,98.065 434.279,97.827 434.745,98.369C436.958,101.947 436.842,101.925 437.875,103.225C439.517,105.293 440.369,104.786 440.729,107.345C441.637,108.402 442.611,110.078 442.756,110.328C443.368,110.699 443.981,111.071 444.593,111.442L444.759,112.377C444.91,113.579 444.948,113.502 445.681,114.394C446.371,115.173 447.219,116.13 452.131,125.69C455.699,132.635 455.569,132.688 455.911,133.274C456.028,133.475 456.474,133.227 456.592,133.428C456.848,137.984 459.094,139.679 459.704,140.424C460.007,142.334 461.429,144.15 461.649,144.431C462.009,145.424 462.37,146.417 462.73,147.41C462.784,147.642 462.816,147.616 463.457,148.521C464.383,149.828 463.701,150.105 464.743,151.377C465.067,152.404 465.391,153.431 465.716,154.458C476.2,183.534 474.591,183.975 475.521,186.488C475.837,189.069 475.806,189.013 476.658,191.458L477.145,191.635C476.702,193.671 476.831,193.625 477.666,195.48C477.805,198.132 477.564,198.133 478.681,200.49L478.694,202.453C478.824,204.621 478.727,204.573 479.661,206.493C479.713,208.619 479.642,208.564 480.144,210.633C479.835,212.672 479.942,212.63 480.691,214.493C481.09,241.509 481.124,241.444 480.684,268.507C479.84,270.972 479.896,270.936 479.715,273.549C479.702,274.536 479.688,275.523 479.675,276.51C478.81,278.445 478.857,278.367 478.688,280.543L478.651,282.511C477.571,284.866 477.794,284.862 477.623,287.514C476.878,289.475 476.826,289.396 476.534,291.51C475.747,294.014 475.744,293.939 475.556,296.532C474.125,301.245 474.036,301.208 473.931,301.623C467.573,326.798 466.088,326.368 465.771,328.6C465.419,329.601 465.066,330.602 464.714,331.603C464.124,332.364 464.329,332.346 464.147,333.327C463.898,334.669 463.086,334.177 462.759,335.602C462.436,336.279 462.114,336.956 461.792,337.633C461.426,338.619 461.061,339.605 460.695,340.59C460.591,340.734 459.904,341.681 459.749,342.593C459.418,343.27 459.087,343.947 458.755,344.624C457.846,346.439 457.709,346.346 457.545,347.531C456.716,348.61 456.774,348.519 456.716,348.61C456.464,349.005 456.705,349.044 456.425,349.461C455.026,351.54 453.295,356.101 453.183,356.23C452.614,356.888 451.495,358.182 447.706,365.612C447.43,365.944 447.002,365.625 446.533,367.525C445.718,368.615 445.771,368.521 445.718,368.615C445.47,369.054 445.736,369.08 445.499,369.5C444.345,370.335 444.478,370.39 443.788,371.695C443.436,372.343 443.084,372.99 442.732,373.637L442.533,374.522C441.908,375.215 441.284,375.907 440.659,376.6C439.574,377.702 436.142,382.822 435.724,383.631C435.337,384.016 435.177,383.323 434.79,383.708C434.395,384.102 435.024,384.243 434.701,384.649C434.565,384.82 433.994,384.441 433.565,386.557C433.375,386.753 433.4,386.743 432.198,388.306C430.056,391.091 429.932,390.844 427.711,393.641C427.318,394.27 426.925,394.9 426.532,395.529C426.294,395.765 424.57,397.469 423.725,398.635C423.608,398.758 421.985,398.635 421.582,401.577C421.57,401.585 420.217,400.965 419.556,403.555C414.489,408.554 414.522,408.472 409.537,413.537C406.51,416.613 406.571,416.547 403.548,419.551C400.011,420.475 399.569,423.043 399.492,423.489C398.469,424.062 398.389,423.765 397.562,424.571C396.753,425.358 395.693,426.378 395.53,426.534C394.897,426.921 394.264,427.308 393.631,427.694C387.108,432.956 381.522,436.596 379.563,438.567C377.993,438.886 377.807,438.887 377.503,440.504L376.634,440.728C375.917,441.31 375.201,441.892 374.485,442.475C373.155,443.14 372.919,442.631 370.527,444.537C367.871,446.654 358.395,451.57 357.313,452.131C356.457,452.575 347.121,457.418 346.656,457.764C344.995,457.958 345.071,458.042 343.614,458.741C341.521,459.696 341.576,459.67 339.663,460.863C339.303,461.139 338.944,461.415 338.584,461.691C337.591,462.05 336.598,462.408 335.605,462.766C333.054,463.31 333.538,464.108 333.329,464.145C332.834,464.233 332.895,464.245 332.473,464.437C330.407,465.377 330.437,465.194 317.484,469.46C300.438,475.073 299.954,473.409 292.565,476.61C289.84,476.482 289.935,476.719 287.513,477.596C284.887,477.791 284.889,477.575 282.507,478.602L280.533,478.645C277.906,478.865 278.007,478.882 275.51,479.687L274.518,479.666C269.375,479.642 269.532,480.333 268.506,480.685C253.432,480.88 250.041,481.227 214.493,480.675C212.057,479.785 212.118,479.878 209.441,479.742L207.486,479.656C204.502,478.696 204.562,478.802 201.501,478.491C200.815,478.279 200.128,478.066 199.442,477.854C198.46,477.742 197.478,477.63 196.496,477.518L195.499,477.505C193.566,476.766 193.658,476.751 191.524,476.45C182.085,474.575 172.064,471.367 170.398,470.833C142.335,461.849 142.943,460.226 140.471,459.567C138.459,458.494 138.511,458.521 136.498,457.502C136.203,457.315 129.925,454.079 129.352,453.784C128.518,453.354 112.888,445.199 108.424,441.619C107.8,441.22 107.176,440.82 106.552,440.42L105.683,440.233C105.3,439.193 105.278,439.268 104.417,438.594C96.48,432.461 96.241,432.887 88.394,426.656C87.783,426.249 87.172,425.842 86.562,425.434C86.039,424.778 69.405,409.285 65.657,405.354C63.679,402.79 63.594,402.97 61.43,400.55C60.85,399.78 56.399,393.874 53.609,391.392C52.752,389.151 51.629,388.615 51.528,388.483C39.49,371.921 39.844,371.703 38.711,370.332C38.348,369.698 37.985,369.064 37.621,368.43L37.321,367.609C37.08,367.219 36.839,366.829 36.598,366.438C35.749,365.359 34.727,363.701 34.576,363.456C31.754,359.8 22.631,339.52 21.677,337.399C21.491,337.133 21.725,337.112 20.114,333.651C17.91,328.731 17.772,328.879 17.648,328.434C17.292,327.45 16.936,326.466 16.579,325.481C15.098,321.454 7.512,300.828 3.791,273.393C3.418,270.409 3.44,270.467 2.71,267.488C1.172,235.049 2.634,220.518 3.042,216.456C3.603,211.889 3.606,211.919 3.648,211.524C3.758,210.49 3.629,210.571 3.733,209.592C8.529,177.341 17.018,155.099 20.154,149.362C21.751,145.899 21.505,145.875 21.692,145.61C37.148,110.278 46.791,103.568 48.851,97.724C49.808,97.261 49.715,97.256 50.369,96.392C50.764,95.773 51.159,95.154 51.554,94.535L51.757,93.668C54.395,92.697 54.077,91.343 54.596,90.59C60.053,84.839 66.522,76.272 70.325,73.329C71.454,72.456 76.525,67.533 77.055,67.018C85.018,59.345 85.005,59.371 85.695,58.704C86.282,58.285 86.869,57.867 87.457,57.448C88.286,56.674 88.36,56.871 89.176,56.123C93.437,52.216 93.824,52.798 98.229,49.138C102.169,45.864 106.143,43.461 107.466,42.462C108.603,41.591 108.562,41.627 109.569,40.619C110.685,40.277 110.588,40.291 111.523,39.539C117.144,35.497 138.903,24.273 140.546,23.573C141.194,23.208 141.842,22.843 142.49,22.479C143.426,21.831 143.561,22.219 144.502,21.504C146.144,21.266 146.034,21.142 147.482,20.449C148.397,20.252 149.427,19.165 160.474,15.414C191.89,4.746 192.636,7.672 202.515,4.532C205.646,4.582 205.556,4.406 208.499,3.49C212.104,3.388 212.078,3.499 215.499,2.483Z" style="fill:rgb(143,198,62);fill-opacity:1;"/>
                <path d="M361.144,106.972C386.512,134.223 390.927,146.291 399.253,164.63C402.382,171.521 420.654,223.107 408.465,253.482C394.485,288.321 361.587,289.526 359.528,289.817C358.442,289.971 330.861,289.744 215.502,289.933C186.172,289.981 150.18,289.916 144.5,289.906C140.861,289.9 133.473,288.137 127.993,295.858C126.157,298.444 125.971,298.706 126.772,335.485C126.805,336.991 129.348,344.808 136.521,345.066C150.993,345.586 382.897,344.227 386.35,345.816C414.397,358.726 403.721,391.546 378.476,392.12C375.347,392.191 147.453,392.152 144.501,392.155C131.282,392.167 114.894,392.584 96.331,374.68C77.167,356.196 79.956,335.003 79.916,300.499C79.892,280.267 91.82,251.662 126.472,244.374C136.441,242.277 136.473,242.858 310.5,242.768C359.41,242.743 362.38,244.003 365.222,235.426C366.092,232.8 367.624,187.448 336.025,148.912C313.493,121.435 278.225,108.326 253.493,107.763C228.017,107.184 223.506,109.757 214.55,111.624C151.001,129.459 136.423,177.356 128.184,185.122C108.846,203.351 78.472,179.493 92.311,155.39C97.919,145.622 115.087,110.549 158.685,84.794C179.407,72.552 192.722,69.344 207.534,64.628C208.849,64.209 209.01,65.138 224.557,61.834C231.763,60.303 273.29,56.942 311.419,73.707C337.278,85.077 351.994,98.68 361.144,106.972Z" style="fill:rgb(1,2,1);"/>
                <path d="M145.631,178.492C152.577,173.154 156.904,163.86 155.576,172.511C155.115,175.513 155.647,175.418 155.703,178.505C155.735,180.254 154.056,181.666 154.691,183.532C154.833,183.949 155.467,184.107 155.543,184.541C155.672,185.279 150.996,187.431 150.136,184.877C148.873,181.128 147.658,181.962 145.631,178.492Z" style="fill:rgb(141,197,51);"/>
                <path d="M103.686,237.721C98.469,236.787 98.139,235.779 98.674,230.516C98.991,227.398 101.407,228.44 103.537,227.602C105.856,226.689 105.613,227.936 107.576,229.416C110.192,231.389 104.481,234.997 104.464,235.436C104.412,236.726 104.43,236.663 103.686,237.721Z" style="fill:rgb(141,198,62);"/>
                <path d="M415.5,239.5C415.507,239.9 415.587,244.503 415.587,244.503C415.601,247.479 419.188,247.212 416.915,252.619C415.48,254.605 415.212,254.587 412.787,253.966L411.99,253.666C412.781,250.809 413.852,251.073 413.432,247.508C413.114,244.803 414.573,245.19 414.914,242.571C415.214,240.262 414.192,240.649 414.244,240.481C414.401,239.973 415.344,240.008 415.5,239.5Z" style="fill:rgb(153,204,73);"/>
                <path d="M219.62,118.687C223.62,117.79 223.858,117.945 224.618,119.19C225.26,120.242 225.591,120.576 224.405,121.106C221.411,122.444 221.008,121.683 219.62,118.687Z" style="fill:rgb(144,197,61);"/>
                <path d="M377.606,114.414C377.464,114.122 375.59,110.263 378.492,110.465C380.078,110.575 380.209,112.307 380.225,112.521C380.386,114.668 379.701,114.763 377.606,114.414Z" style="fill:rgb(129,187,56);"/>
                <path d="M456.592,133.428C459.415,136.175 459.662,139.813 459.704,140.424C459.094,139.679 456.848,137.984 456.592,133.428Z" style="fill:rgb(144,185,59);fill-opacity:0.16;"/>
                <path d="M414.443,208.512C416.579,212.535 415.444,212.751 415.329,217.497C414.126,213.067 415.209,212.979 414.443,208.512Z" style="fill:rgb(156,206,81);"/>
                <path d="M343.614,458.741L345.622,458.768C342.74,460.273 342.867,460.516 339.663,460.863C341.576,459.67 341.521,459.696 343.614,458.741Z" style="fill:rgb(139,172,61);fill-opacity:0.17;"/>
                <path d="M274.506,3.44C277.876,3.186 278.393,1.902 280.537,4.435C277.452,4.178 277.46,4.397 274.506,3.44Z" style="fill:rgb(164,181,42);fill-opacity:0.16;"/>
                <path d="M3.733,209.592C3.629,210.571 3.758,210.49 3.648,211.524C3.606,211.919 3.603,211.889 3.042,216.456C2.597,212.667 0.963,212.134 3.733,209.592Z" style="fill:rgb(94,166,26);fill-opacity:0.22;"/>
                <path d="M208.499,3.49C205.556,4.406 205.646,4.582 202.515,4.532C205.101,2.557 205.327,3.378 208.499,3.49Z" style="fill:rgb(126,176,33);fill-opacity:0.16;"/>
                <path d="M267.505,2.35C271.16,2.383 271.12,2.244 274.506,3.44C268.147,3.361 268.294,2.557 267.505,2.35Z" style="fill:rgb(124,158,56);fill-opacity:0.18;"/>
                <path d="M477.623,287.514C478.322,292.887 476.777,292.454 476.708,292.564L476.534,291.51C476.826,289.396 476.878,289.475 477.623,287.514Z" style="fill:rgb(149,192,48);fill-opacity:0.13;"/>
                <path d="M215.499,2.483C212.078,3.499 212.104,3.388 208.499,3.49C211.894,2.306 211.876,2.691 215.499,2.483Z" style="fill:rgb(102,160,36);fill-opacity:0.21;"/>
                <path d="M209.441,479.742C212.118,479.878 212.057,479.785 214.493,480.675C211.621,480.643 211.397,481.455 209.441,479.742Z" style="fill:rgb(147,180,54);fill-opacity:0.15;"/>
                <path d="M480.684,268.507C480.97,271.177 481.15,271.251 479.715,273.549C479.896,270.936 479.84,270.972 480.684,268.507Z" style="fill:rgb(138,173,44);fill-opacity:0.17;"/>
                <path d="M274.518,479.666C271.573,480.723 271.609,480.584 268.506,480.685C269.532,480.333 269.375,479.642 274.518,479.666Z" style="fill:rgb(124,166,63);fill-opacity:0.18;"/>
                <path d="M2.71,267.488C3.44,270.467 3.418,270.409 3.791,273.393C2.172,271.91 2.888,271.596 2.71,267.488Z" style="fill:rgb(93,166,20);fill-opacity:0.22;"/>
                <path d="M292.565,476.61C290.539,478.51 290.248,477.587 287.513,477.596C289.935,476.719 289.84,476.482 292.565,476.61Z" style="fill:rgb(144,180,39);fill-opacity:0.13;"/>
                <path d="M403.548,419.551C401.518,421.57 401.713,421.695 399.492,423.489C399.569,423.043 400.011,420.475 403.548,419.551Z" style="fill:rgb(117,150,55);fill-opacity:0.18;"/>
                <path d="M415.48,235.5L415.5,239.5C415.058,238.644 414.473,239.363 414.026,238.499C413.986,238.422 414.284,238.579 414.466,237.501C414.665,236.327 414.946,236.555 415.48,235.5Z" style="fill:rgb(158,208,83);"/>
                <path d="M475.521,186.488C476.39,187.352 476.725,187.274 476.658,191.458C475.806,189.013 475.837,189.069 475.521,186.488Z" style="fill:rgb(119,174,61);fill-opacity:0.18;"/>
                <path d="M476.534,291.51L476.708,292.564C476.563,294.739 477.075,294.9 475.556,296.532C475.744,293.939 475.747,294.014 476.534,291.51Z" style="fill:rgb(121,176,63);fill-opacity:0.19;"/>
                <path d="M280.533,478.645C278.392,480.261 278.242,479.669 275.51,479.687C278.007,478.882 277.906,478.865 280.533,478.645Z" style="fill:rgb(123,160,56);fill-opacity:0.19;"/>
                <path d="M273.482,114.529C273.646,114.519 275.537,114.395 275.537,114.395C277.057,115.372 275.044,115.332 274.21,116.919C273.967,116.123 273.724,115.326 273.482,114.529Z" style="fill:rgb(155,206,79);"/>
                <path d="M201.501,478.491C204.562,478.802 204.502,478.696 207.486,479.656C204.333,479.565 204.399,479.537 201.501,478.491Z" style="fill:rgb(111,151,50);fill-opacity:0.23;"/>
                <path d="M61.43,400.55C63.594,402.97 63.679,402.79 65.657,405.354C63.325,403.022 63.19,403.256 61.43,400.55Z" style="fill:rgb(94,145,37);fill-opacity:0.24;"/>
                <path d="M21.692,145.61C21.505,145.875 21.751,145.899 20.154,149.362C19.579,147.046 19.578,146.734 21.692,145.61Z" style="fill:rgb(67,181,20);fill-opacity:0.15;"/>
                <path d="M20.114,333.651C21.725,337.112 21.491,337.133 21.677,337.399C19.609,336.265 19.628,335.968 20.114,333.651Z" style="fill:rgb(65,182,19);fill-opacity:0.16;"/>
                <path d="M478.694,202.453C480.116,204.139 479.586,204.286 479.661,206.493C478.727,204.573 478.824,204.621 478.694,202.453Z" style="fill:rgb(122,175,69);fill-opacity:0.16;"/>
                <path d="M477.666,195.48C478.51,197.969 478.501,197.889 478.681,200.49C477.564,198.133 477.805,198.132 477.666,195.48Z" style="fill:rgb(126,157,58);fill-opacity:0.18;"/>
                <path d="M119.433,111.492C119.269,111.904 120.093,112.314 119.929,112.725C119.929,112.725 117.494,114.107 117.282,114.227C118.046,112.622 118.146,112.805 119.433,111.492Z" style="fill:rgb(157,197,79);"/>
                <path d="M478.651,282.511C478.469,285.125 478.606,285.078 477.623,287.514C477.794,284.862 477.571,284.866 478.651,282.511Z" style="fill:rgb(115,157,51);fill-opacity:0.2;"/>
                <path d="M210.368,116.288C210.644,116.123 210.442,115.84 211.582,115.56C214.143,114.93 214.197,116.687 214.346,116.793C213.02,116.625 211.694,116.456 210.368,116.288Z" style="fill:rgb(149,199,77);"/>
                <path d="M440.729,107.345C442.713,107.832 442.37,108.324 442.756,110.328C442.611,110.078 441.637,108.402 440.729,107.345Z" style="fill:rgb(133,185,34);fill-opacity:0.15;"/>
                <path d="M287.513,477.596C285.063,478.567 285.081,478.431 282.507,478.602C284.889,477.575 284.887,477.791 287.513,477.596Z" style="fill:rgb(119,153,51);fill-opacity:0.2;"/>
                <path d="M398.638,59.271C400.225,59.685 400.307,59.736 400.751,61.321C400.483,61.104 399.987,61.476 399.719,61.26C399.492,61.075 399.82,60.581 399.599,60.389C399.177,60.02 399.021,60.759 398.648,60.326C398.243,59.854 399.035,59.733 398.638,59.271Z" style="fill:rgb(181,203,33);fill-opacity:0.09;"/>
                <path d="M423.725,398.635C423.176,400.475 422.949,400.294 421.582,401.577C421.985,398.635 423.608,398.758 423.725,398.635Z" style="fill:rgb(140,174,39);fill-opacity:0.13;"/>
                <path d="M435.724,383.631C435.18,385.468 434.934,385.271 433.565,386.557C433.994,384.441 434.565,384.82 434.701,384.649C435.024,384.243 434.395,384.102 434.79,383.708C435.177,383.323 435.337,384.016 435.724,383.631Z" style="fill:rgb(138,168,39);fill-opacity:0.16;"/>
                <path d="M394.472,55.546C396.149,56.87 396.004,56.87 397.534,58.46C397.077,58.138 396.378,58.322 395.92,58.001C395.701,57.846 395.962,57.385 395.756,57.212C395.559,57.045 394.949,57.546 394.472,55.546Z" style="fill:rgb(113,154,58);fill-opacity:0.19;"/>
                <path d="M479.675,276.51C479.519,278.648 479.997,278.746 478.688,280.543C478.857,278.367 478.81,278.445 479.675,276.51Z" style="fill:rgb(120,156,56);fill-opacity:0.19;"/>
                <path d="M136.498,457.502C138.511,458.521 138.459,458.494 140.471,459.567C138.921,458.93 138.752,459.467 137.568,458.375C137.568,458.375 136.584,457.572 136.498,457.502Z" style="fill:rgb(93,168,48);fill-opacity:0.21;"/>
                <path d="M477.145,191.635C477.701,193.563 477.53,193.518 477.666,195.48C476.831,193.625 476.702,193.671 477.145,191.635Z" style="fill:rgb(129,177,60);fill-opacity:0.18;"/>
                <path d="M244.509,56.578C241.52,57.021 241.595,57.051 238.514,57.089C241.495,56.619 241.434,56.668 244.509,56.578Z" style="fill:rgb(153,202,75);"/>
                <path d="M54.596,90.59C54.077,91.343 54.395,92.697 51.757,93.668C53.131,92.06 53.065,92.11 54.596,90.59Z" style="fill:rgb(97,145,37);fill-opacity:0.22;"/>
                <path d="M480.144,210.633C480.708,212.549 480.552,212.51 480.691,214.493C479.942,212.63 479.835,212.672 480.144,210.633Z" style="fill:rgb(125,167,58);fill-opacity:0.21;"/>
                <path d="M346.656,457.764C346.311,458.098 345.967,458.433 345.622,458.768L343.614,458.741C345.071,458.042 344.995,457.958 346.656,457.764Z" style="fill:rgb(137,194,73);fill-opacity:0.22;"/>
                <path d="M372.673,40.246L373.636,40.248C374.775,40.599 374.731,40.55 375.653,41.343C374.982,41.323 374.311,41.304 373.64,41.285L372.673,40.246Z" style="fill:rgb(120,181,71);fill-opacity:0.11;"/>
                <path d="M191.524,476.45C193.658,476.751 193.566,476.766 195.499,477.505C193.339,477.342 193.367,477.438 191.524,476.45Z" style="fill:rgb(131,153,51);fill-opacity:0.22;"/>
                <path d="M142.296,171.53C143.967,172.625 144.244,172.595 144.112,174.554C144.086,174.521 144.108,174.555 142.296,171.53Z" style="fill:rgb(149,200,67);"/>
                <path d="M123.529,106.508C123.416,107.213 124.093,107.388 123.287,108.014C122.518,108.611 122.454,108.356 121.529,108.736C122.196,107.993 122.862,107.25 123.529,106.508Z" style="fill:rgb(149,193,69);"/>
                <path d="M371.566,38.39C371.726,38.545 372.596,39.386 373.636,40.248L372.673,40.246C372.304,39.627 371.935,39.009 371.566,38.39Z" style="fill:rgb(121,159,47);fill-opacity:0.11;"/>
                <path d="M429.54,91.464C430.839,92.788 430.733,92.801 431.703,94.369C431.593,94.24 430.247,94.008 429.54,91.464Z" style="fill:rgb(113,150,54);fill-opacity:0.22;"/>
                <path d="M373.64,41.285C374.311,41.304 374.982,41.323 375.653,41.343C375.95,41.713 376.247,42.084 376.544,42.454C375.6,42.308 375.717,42.24 373.64,41.285Z" style="fill:rgb(155,188,43);fill-opacity:0.2;"/>
                <path d="M109.569,40.619C108.562,41.627 108.603,41.591 107.466,42.462C107.496,42.334 107.844,40.857 107.844,40.857C108.345,40.564 109.068,40.912 109.569,40.619Z" style="fill:rgb(82,184,35);fill-opacity:0.16;"/>
                <path d="M464.743,151.377C465.798,152.728 465.61,152.769 465.716,154.458C465.391,153.431 465.067,152.404 464.743,151.377Z" style="fill:rgb(140,164,44);fill-opacity:0.15;"/>
                <path d="M465.771,328.6C465.462,330.227 465.759,330.307 464.714,331.603C465.066,330.602 465.419,329.601 465.771,328.6Z" style="fill:rgb(138,164,35);fill-opacity:0.16;"/>
                <path d="M51.528,388.483C51.629,388.615 52.752,389.151 53.609,391.392C52.272,390.127 52.407,390.096 51.528,388.483Z" style="fill:rgb(99,161,44);fill-opacity:0.24;"/>
                <path d="M34.576,363.456C34.727,363.701 35.749,365.359 36.598,366.438L35.888,366.262C35.859,366.209 35.223,366.213 34.576,363.456Z" style="fill:rgb(73,171,24);fill-opacity:0.25;"/>
                <path d="M419.546,79.451C420.667,80.425 420.614,80.379 421.658,81.343C421.031,80.972 420.404,80.6 419.777,80.228L419.546,79.451Z" style="fill:rgb(107,174,77);fill-opacity:0.13;"/>
                <path d="M442.533,374.522C441.568,375.556 440.806,376.431 440.659,376.6C441.284,375.907 441.908,375.215 442.533,374.522Z" style="fill:rgb(122,140,56);fill-opacity:0.15;"/>
                <path d="M339.618,22.246L340.595,22.277C341.716,22.637 341.676,22.588 342.55,23.432C341.411,23.253 341.499,23.14 339.618,22.246Z" style="fill:rgb(139,166,42);fill-opacity:0.19;"/>
                <path d="M458.755,344.624L458.716,345.608C458.3,346.756 458.31,346.679 457.545,347.531C457.709,346.346 457.846,346.439 458.755,344.624Z" style="fill:rgb(126,155,57);fill-opacity:0.17;"/>
                <path d="M443.788,371.695L444.546,371.527C444.399,371.694 443.611,372.588 442.732,373.637C443.084,372.99 443.436,372.343 443.788,371.695Z" style="fill:rgb(121,155,57);fill-opacity:0.15;"/>
                <path d="M445.499,369.5C444.75,370.629 444.803,370.535 444.75,370.629C444.507,371.054 444.8,371.082 444.546,371.527L443.788,371.695C444.478,370.39 444.345,370.335 445.499,369.5Z" style="fill:rgb(123,174,63);fill-opacity:0.22;"/>
                <path d="M459.749,342.593C459.424,344.222 459.671,344.226 458.716,345.608L458.755,344.624C459.087,343.947 459.418,343.27 459.749,342.593Z" style="fill:rgb(122,151,57);fill-opacity:0.15;"/>
                <path d="M337.602,21.278L338.579,21.328C339.251,21.645 339.923,21.961 340.595,22.277L339.618,22.246C338.946,21.923 338.274,21.601 337.602,21.278Z" style="fill:rgb(122,147,59);fill-opacity:0.17;"/>
                <path d="M384.508,285.775C383.867,286.366 383.227,286.958 382.587,287.549C383.489,285.757 383.401,285.681 383.561,285.613C383.856,285.489 384.213,285.899 384.508,285.775Z" style="fill:rgb(148,195,84);"/>
                <path d="M379.563,438.567C378.543,439.646 378.595,439.593 377.503,440.504C377.807,438.887 377.993,438.886 379.563,438.567Z" style="fill:rgb(112,176,75);fill-opacity:0.15;"/>
                <path d="M376.634,440.728C375.563,441.585 374.656,442.334 374.485,442.475C375.201,441.892 375.917,441.31 376.634,440.728Z" style="fill:rgb(121,150,58);fill-opacity:0.16;"/>
                <path d="M335.578,20.3C337.262,20.625 337.257,20.409 338.579,21.328L337.602,21.278C336.927,20.952 336.252,20.626 335.578,20.3Z" style="fill:rgb(121,148,60);fill-opacity:0.16;"/>
                <path d="M359.593,207.497C359.789,208.18 359.985,208.862 360.182,209.544L359.745,210.473L359.593,207.497Z" style="fill:rgb(157,205,88);"/>
                <path d="M404.527,64.459C405.616,65.437 405.541,65.36 406.539,66.462C405.868,65.794 405.197,65.127 404.527,64.459Z" style="fill:rgb(103,165,65);fill-opacity:0.19;"/>
                <path d="M425.548,86.454C426.612,87.482 426.54,87.41 427.516,88.489C425.934,88.116 425.929,88.024 425.548,86.454Z" style="fill:rgb(115,153,48);fill-opacity:0.16;"/>
                <path d="M147.482,20.449C146.034,21.142 146.144,21.266 144.502,21.504C145.838,20.538 145.852,20.736 147.482,20.449Z" style="fill:rgb(85,173,37);fill-opacity:0.18;"/>
                <path d="M330.598,18.228C332.258,18.603 332.255,18.395 333.576,19.328C332.583,18.961 331.591,18.595 330.598,18.228Z" style="fill:rgb(115,141,58);fill-opacity:0.19;"/>
                <path d="M421.582,401.577C420.565,402.572 420.634,402.505 419.556,403.555C420.217,400.965 421.57,401.585 421.582,401.577Z" style="fill:rgb(117,148,56);fill-opacity:0.18;"/>
                <path d="M462.759,335.602C462.408,337.23 462.619,337.231 461.684,338.584L461.792,337.633C462.114,336.956 462.436,336.279 462.759,335.602Z" style="fill:rgb(107,143,46);fill-opacity:0.2;"/>
                <path d="M338.584,461.691C337.233,462.606 337.238,462.403 335.605,462.766C336.598,462.408 337.591,462.05 338.584,461.691Z" style="fill:rgb(113,139,53);fill-opacity:0.2;"/>
                <path d="M461.792,337.633L461.684,338.584C461.349,339.699 461.355,339.642 460.695,340.59C461.061,339.605 461.426,338.619 461.792,337.633Z" style="fill:rgb(103,139,50);fill-opacity:0.23;"/>
                <path d="M461.649,144.431C462.563,145.775 462.375,145.776 462.73,147.41C462.37,146.417 462.009,145.424 461.649,144.431Z" style="fill:rgb(105,142,48);fill-opacity:0.2;"/>
                <path d="M421.658,81.343C422.443,82.246 422.4,82.201 422.765,83.342C422.551,83.103 422.022,83.483 421.808,83.244C421.706,83.131 421.797,83.103 421.658,81.343Z" style="fill:rgb(166,189,32);fill-opacity:0.1;"/>
                <path d="M360.182,209.544C360.039,210.847 359.896,212.149 359.754,213.452L359.745,210.473L360.182,209.544Z" style="fill:rgb(154,202,84);"/>
                <path d="M442.756,110.328C443.88,110.658 443.806,110.661 444.593,111.442C443.981,111.071 443.368,110.699 442.756,110.328Z" style="fill:rgb(121,170,54);fill-opacity:0.11;"/>
                <path d="M196.496,477.518C197.478,477.63 198.46,477.742 199.442,477.854L198.528,478.342C197.851,478.067 197.174,477.792 196.496,477.518Z" style="fill:rgb(123,160,45);fill-opacity:0.24;"/>
                <path d="M361.515,231.495C361.732,232.386 361.949,233.277 362.165,234.168C361.717,232.839 361.76,232.919 361.515,231.495Z" style="fill:rgb(156,201,81);"/>
                <path d="M433.578,96.427C434.348,97.294 434.341,97.216 434.745,98.369C434.279,97.827 433.922,98.065 433.578,96.427Z" style="fill:rgb(113,181,78);fill-opacity:0.17;"/>
                <path d="M368.606,37.31C369.28,37.616 369.954,37.922 370.628,38.228C369.462,38.115 369.496,38.074 368.606,37.31Z" style="fill:rgb(110,154,53);fill-opacity:0.16;"/>
                <path d="M199.442,477.854C200.128,478.066 200.815,478.279 201.501,478.491L198.528,478.342L199.442,477.854Z" style="fill:rgb(113,148,41);fill-opacity:0.24;"/>
                <path d="M444.759,112.377C445.066,113.05 445.374,113.722 445.681,114.394C444.948,113.502 444.91,113.579 444.759,112.377Z" style="fill:rgb(106,148,50);fill-opacity:0.18;"/>
                <path d="M418.503,78.497C418.851,78.815 419.198,79.133 419.546,79.451L419.777,80.228C419.497,79.949 419.029,80.341 418.503,78.497Z" style="fill:rgb(130,153,63);fill-opacity:0.19;"/>
                <path d="M16.579,325.481C16.936,326.466 17.292,327.45 17.648,328.434C17.292,327.45 16.936,326.466 16.579,325.481Z" style="fill:rgb(86,169,30);fill-opacity:0.29;"/>
                <path d="M111.523,39.539C110.588,40.291 110.685,40.277 109.569,40.619C110.22,40.259 110.871,39.899 111.523,39.539Z" style="fill:rgb(99,150,31);fill-opacity:0.23;"/>
                <path d="M447.706,365.612C447.282,366.732 447.298,366.631 446.533,367.525C447.002,365.625 447.43,365.944 447.706,365.612Z" style="fill:rgb(127,150,59);fill-opacity:0.19;"/>
                <path d="M81.985,274.442C82.101,275.602 82.386,275.671 81.535,276.531C81.685,275.835 81.835,275.139 81.985,274.442Z" style="fill:rgb(152,199,77);"/>
                <path d="M104.417,438.594C105.278,439.268 105.3,439.193 105.683,440.233C104.857,439.379 104.773,439.541 104.417,438.594Z" style="fill:rgb(117,143,26);fill-opacity:0.17;"/>
                <path d="M35.888,366.262L36.598,366.438C36.839,366.829 37.08,367.219 37.321,367.609C37.011,367.49 37.112,367.419 36.792,367.296C36.122,367.038 36.382,366.827 35.888,366.262Z" style="fill:rgb(101,142,18);fill-opacity:0.2;"/>
                <path d="M142.49,22.479C141.842,22.843 141.194,23.208 140.546,23.573C141.194,23.208 141.842,22.843 142.49,22.479Z" style="fill:rgb(81,176,37);fill-opacity:0.22;"/>
                <path d="M427.711,393.641C427.318,394.27 426.925,394.9 426.532,395.529C426.925,394.9 427.318,394.27 427.711,393.641Z" style="fill:rgb(127,148,59);fill-opacity:0.2;"/>
                <path d="M106.552,440.42C107.176,440.82 107.8,441.22 108.424,441.619C107.8,441.22 107.176,440.82 106.552,440.42Z" style="fill:rgb(110,146,45);fill-opacity:0.23;"/>
                <path d="M50.369,96.392C49.715,97.256 49.808,97.261 48.851,97.724C48.898,97.67 48.264,97.191 50.369,96.392Z" style="fill:rgb(99,156,29);fill-opacity:0.21;"/>
                <path d="M37.621,368.43C37.985,369.064 38.348,369.698 38.711,370.332C38.348,369.698 37.985,369.064 37.621,368.43Z" style="fill:rgb(76,180,27);fill-opacity:0.26;"/>
                <path d="M395.53,426.534C394.897,426.921 394.264,427.308 393.631,427.694C394.264,427.308 394.897,426.921 395.53,426.534Z" style="fill:rgb(109,154,54);fill-opacity:0.2;"/>
                <path d="M86.562,425.434C87.172,425.842 87.783,426.249 88.394,426.656C87.783,426.249 87.172,425.842 86.562,425.434Z" style="fill:rgb(111,155,52);fill-opacity:0.23;"/>
                <path d="M87.457,57.448C86.869,57.867 86.282,58.285 85.695,58.704C86.282,58.285 86.869,57.867 87.457,57.448Z" style="fill:rgb(103,145,27);fill-opacity:0.27;"/>
                <path d="M411.99,253.666L412.787,253.966C412.348,254.143 411.909,254.32 411.47,254.498L411.99,253.666Z" style="fill:rgb(145,190,79);"/>
            </g>
        </g>
    </g>
</svg>
