<?xml version="1.0" encoding="UTF-8" standalone="no"?>
<!DOCTYPE svg PUBLIC "-//W3C//DTD SVG 1.1//EN" "http://www.w3.org/Graphics/SVG/1.1/DTD/svg11.dtd">
<svg width="100%" height="100%" viewBox="0 0 557 584" version="1.1" xmlns="http://www.w3.org/2000/svg" xmlns:xlink="http://www.w3.org/1999/xlink" xml:space="preserve" xmlns:serif="http://www.serif.com/" style="fill-rule:evenodd;clip-rule:evenodd;stroke-linejoin:round;stroke-miterlimit:2;">
    <g transform="matrix(1,0,0,1,-1074.873853,-1462.091721)">
        <g transform="matrix(1.071715,0,0,1.071715,902.993918,1460.833016)">
            <g>
                <path d="M523.89,248.501C523.851,254.4 523.852,301.802 523.888,307.499C523.638,308.139 522.336,307.86 522.086,308.5C518.39,317.966 521.05,387.873 449.977,466.934C435.661,482.858 426.783,488.59 419.555,495.828C418.336,494.372 418.699,494.205 417.133,492.936C358.327,445.28 325.336,374.999 318.198,313.5C317.848,310.486 316.314,311.441 316.068,310.501C315.764,309.34 316.221,309.44 315.736,295.499C315.227,279.62 315.484,269.73 315.735,261.501C316.316,247.692 315.827,247.675 316.068,246.499C316.206,245.825 317.474,246.061 317.872,245.5C320.468,241.847 320.964,143.219 419.5,61.733C442.435,77.489 482.189,121.348 502.133,170.651C521.679,218.969 520.832,245.233 522.054,247.5C522.384,248.114 523.559,247.887 523.89,248.501Z" style="fill:rgb(194,16,16);fill-opacity:1;"/>
                <path d="M569.497,1.396C586.604,1.902 661.81,0.644 675.362,1.784C676.448,2.357 676.389,2.23 677.555,2.439C677.917,2.765 678.278,3.09 678.64,3.415C679.402,4.542 679.362,4.441 679.402,4.542C679.854,5.661 679.851,194.026 679.431,202.464C678.824,202.851 678.216,203.238 677.609,203.625C677.243,203.927 676.877,204.229 676.511,204.531C673.556,205.124 673.531,205.651 525.508,205.529C523.957,206.561 523.94,206.629 523.947,208.501C523.993,220.767 523.902,245.301 523.89,248.501C523.559,247.887 522.384,248.114 522.054,247.5C520.832,245.233 521.679,218.969 502.133,170.651C482.189,121.348 442.435,77.489 419.5,61.733L420.475,60.449C420.804,60.112 421.132,59.775 421.46,59.438C421.817,59.139 422.175,58.839 422.532,58.539C423.157,58.147 423.782,57.754 424.407,57.361C430.65,52.315 430.857,52.773 431.355,52.299C433.255,50.638 433.617,51.297 435.424,49.359C438.163,47.525 438.037,47.587 440.521,45.525C441.156,45.141 441.791,44.757 442.426,44.373C445.079,42.172 445.215,42.566 445.431,42.375C446.099,42.043 446.766,41.712 447.434,41.381C447.796,41.096 448.158,40.812 448.52,40.528C449.179,40.182 449.837,39.835 450.496,39.489C451.072,39.201 455.111,37.181 457.491,35.488C458.752,35.166 458.683,35.047 469.442,29.368C470.284,29.115 472.325,27.786 472.565,27.63C476.82,24.861 477.489,26.365 481.435,23.358C485.522,22.051 485.472,22.131 489.473,20.389C495.479,17.711 505.677,14.769 508.675,12.869C510.782,12.985 510.838,13.289 515.511,11.535C517.133,11.276 517.005,11.23 518.493,10.445C528.902,8.369 538.215,5.521 547.632,3.887C549.678,4.216 549.597,4.12 551.491,3.351L554.455,3.266C557.049,3.095 556.983,3.112 559.493,2.363L561.488,2.368C568.946,2.609 569.263,1.446 569.497,1.396Z" style="fill:rgb(234,16,16);fill-opacity:1;"/>
                <path d="M163.469,2.454C169.338,0.207 266.582,1.45 271.524,2.199L274.497,2.534C276.297,2.592 276.245,2.641 280.549,3.088L284.494,3.537C285.847,3.732 287.199,3.928 288.551,4.123L291.504,4.475C310.272,7.985 310.147,7.99 328.609,13.144C329.547,13.336 330.485,13.528 331.423,13.72C332.351,13.88 332.277,13.865 332.351,13.88C332.493,13.908 332.448,14.199 332.585,14.244C354.284,21.399 353.736,22.725 355.686,23.06C360.647,23.914 372.194,31.135 375.279,31.942C377.117,33.252 376.979,33.292 379.248,33.86C383.296,36.843 398.944,44.858 405.436,50.594C406.728,51.545 406.669,51.452 408.176,51.884C413.216,56.315 413.346,55.943 418.593,60.347C419.22,60.381 419.848,60.415 420.475,60.449L419.5,61.733C320.964,143.219 320.468,241.847 317.872,245.5C317.474,246.061 316.206,245.825 316.068,246.499C315.827,247.675 316.316,247.692 315.735,261.501C315.764,257.107 316.088,206.606 316.076,206.585C315.115,204.895 314.387,205.347 176.5,205.299C165.575,205.295 160.384,207.356 160.384,193.5C160.375,5.789 160.26,5.474 161.749,3.672C162.567,2.977 162.594,3.171 163.469,2.454Z" style="fill:rgb(145,16,16);fill-opacity:1;"/>
                <path d="M523.888,307.499C524.931,522.638 523.132,522.645 524.141,541.324C523.897,541.697 523.654,542.071 523.41,542.444C522.837,542.868 522.263,543.292 521.69,543.716C521.397,543.935 521.379,543.839 517.501,545.546L516.498,545.55C515.05,544.858 515.192,544.796 513.493,544.522C508.917,542.724 508.873,543.023 506.64,543.143L506.444,542.676C505.041,542.06 505.14,541.908 503.64,542.158L503.436,541.694C502.056,541.076 502.157,540.924 500.675,541.148C495.802,537.917 490.21,536.739 487.484,535.565C481.571,532.714 481.827,532.064 477.499,531.502C476.69,531.12 476.723,531.081 467.504,526.487C466.578,525.802 466.641,525.783 465.466,525.57L464.544,525.413C463.659,524.303 463.678,524.355 462.389,523.71C461.727,523.367 461.064,523.024 460.402,522.682C459.435,522.288 458.467,521.894 457.5,521.5C457.05,521.14 453.445,518.257 451.444,517.601C450.788,517.248 450.132,516.896 449.476,516.544C447.254,514.546 447.127,514.93 444.429,513.624C443.784,513.252 443.138,512.881 442.493,512.51C442.138,512.214 441.783,511.918 441.429,511.621C440.794,511.238 440.159,510.854 439.525,510.471C438.954,509.911 435.303,506.927 434.431,506.628C433.41,505.45 433.32,505.654 429.511,503.488C429.35,503.332 428.497,502.504 427.405,501.651C426.775,501.263 426.144,500.874 425.513,500.485C423.697,498.69 423.732,498.776 421.583,497.365C421.175,496.873 420.767,496.381 420.359,495.889L419.555,495.828C426.783,488.59 435.661,482.858 449.977,466.934C521.05,387.873 518.39,317.966 522.086,308.5C522.336,307.86 523.638,308.139 523.888,307.499Z" style="fill:rgb(234,16,16);fill-opacity:1;"/>
                <path d="M315.736,295.499C316.221,309.44 315.764,309.34 316.068,310.501C316.314,311.441 317.848,310.486 318.198,313.5C325.336,374.999 358.327,445.28 417.133,492.936C418.699,494.205 418.336,494.372 419.555,495.828L420.359,495.889C416.704,496.949 413.099,501.158 409.409,503.377C408.259,504.179 406.643,505.2 406.4,505.354C406.236,505.504 404.736,506.878 404.295,507.175C395.343,513.216 395.232,512.915 394.471,513.454C393.307,514.217 393.393,514.151 392.243,515.038C389.512,516.012 390.47,517.838 360.278,532.116C358.818,532.266 358.896,532.238 357.628,532.798C356.238,533.538 345.854,539.062 339.408,540.267L336.641,540.934C320.345,548.216 317.419,542.83 316.655,541.425C314.683,537.795 316.172,363.981 315.736,295.499Z" style="fill:rgb(145,16,16);fill-opacity:0.99;"/>
                <path d="M525.508,205.529C524.416,207.077 524.658,207.325 524.658,370.5C524.658,539.132 524.723,539.128 524.141,541.324C523.132,522.645 524.931,522.638 523.888,307.499C523.852,301.802 523.851,254.4 523.89,248.501C523.902,245.301 523.993,220.767 523.947,208.501C523.94,206.629 523.957,206.561 525.508,205.529Z" style="fill:rgb(182,12,12);fill-opacity:0.28;"/>
                <path d="M469.442,29.368C458.683,35.047 458.752,35.166 457.491,35.488C458.262,34.74 462.6,30.531 469.442,29.368Z" style="fill:rgb(195,13,13);fill-opacity:0.22;"/>
                <path d="M477.499,531.502C481.827,532.064 481.571,532.714 487.484,535.565C483.676,535.022 479.038,532.904 477.499,531.502Z" style="fill:rgb(203,13,13);fill-opacity:0.23;"/>
                <path d="M569.497,1.396C569.263,1.446 568.946,2.609 561.488,2.368C566.958,0.488 567.041,1.458 569.497,1.396Z" style="fill:rgb(198,13,13);fill-opacity:0.22;"/>
                <path d="M489.473,20.389C485.472,22.131 485.522,22.051 481.435,23.358C485.371,21.364 485.216,21.105 489.473,20.389Z" style="fill:rgb(193,12,12);fill-opacity:0.24;"/>
                <path d="M429.511,503.488C433.32,505.654 433.41,505.45 434.431,506.628C431.418,506.108 431.628,505.764 429.511,503.488Z" style="fill:rgb(205,13,13);fill-opacity:0.14;"/>
                <path d="M513.472,11.391C514.152,11.439 514.831,11.487 515.511,11.535C510.838,13.289 510.782,12.985 508.675,12.869C511.18,12.394 510.978,12.006 513.472,11.391Z" style="fill:rgb(204,13,13);fill-opacity:0.24;"/>
                <path d="M506.64,543.143C508.873,543.023 508.917,542.724 513.493,544.522L511.475,544.602C508.973,543.994 509.18,543.606 506.64,543.143Z" style="fill:rgb(202,13,13);fill-opacity:0.24;"/>
                <path d="M435.424,49.359C433.617,51.297 433.255,50.638 431.355,52.299C432.154,49.621 432.622,49.868 435.424,49.359Z" style="fill:rgb(209,14,14);fill-opacity:0.15;"/>
                <path d="M444.429,513.624C447.127,514.93 447.254,514.546 449.476,516.544C446.824,515.272 446.747,515.578 444.429,513.624Z" style="fill:rgb(196,13,13);fill-opacity:0.2;"/>
                <path d="M409.409,503.377C409.384,503.515 409.105,505.1 409.105,505.1C408.903,505.327 408.399,504.929 408.197,505.155C407.98,505.398 408.387,505.876 408.185,506.131C408.089,506.253 408.059,506.076 406.4,505.354C406.643,505.2 408.259,504.179 409.409,503.377Z" style="fill:rgb(141,15,15);fill-opacity:0.2;"/>
                <path d="M518.493,10.445C517.005,11.23 517.133,11.276 515.511,11.535C514.831,11.487 514.152,11.439 513.472,11.391C515.903,10.297 515.897,10.477 518.493,10.445Z" style="fill:rgb(207,12,12);fill-opacity:0.14;"/>
                <path d="M521.69,543.716L521.51,544.512C519.826,546.026 519.693,545.471 517.501,545.546C521.379,543.839 521.397,543.935 521.69,543.716Z" style="fill:rgb(207,14,14);fill-opacity:0.2;"/>
                <path d="M511.475,544.602L513.493,544.522C515.192,544.796 515.05,544.858 516.498,545.55C513.891,545.482 513.958,545.663 511.475,544.602Z" style="fill:rgb(201,13,13);fill-opacity:0.16;"/>
                <path d="M559.493,2.363C556.983,3.112 557.049,3.095 554.455,3.266C556.888,1.733 557.02,2.504 559.493,2.363Z" style="fill:rgb(187,13,13);fill-opacity:0.23;"/>
                <path d="M375.279,31.942C376.602,32.581 377.925,33.221 379.248,33.86C376.979,33.292 377.117,33.252 375.279,31.942Z" style="fill:rgb(131,14,14);fill-opacity:0.27;"/>
                <path d="M405.436,50.594C405.636,50.515 407.117,49.928 408.105,50.916C408.334,51.144 407.947,51.655 408.176,51.884C406.669,51.452 406.728,51.545 405.436,50.594Z" style="fill:rgb(142,15,15);fill-opacity:0.18;"/>
                <path d="M461.432,523.636L462.389,523.71C463.678,524.355 463.659,524.303 464.544,525.413C463.443,524.614 461.69,523.761 461.432,523.636Z" style="fill:rgb(184,12,12);fill-opacity:0.22;"/>
                <path d="M547.632,3.887C549.58,3.385 549.463,3.518 551.491,3.351C549.597,4.12 549.678,4.216 547.632,3.887Z" style="fill:rgb(199,13,13);fill-opacity:0.23;"/>
                <path d="M394.471,513.454C394.124,515.028 394.24,514.972 394.124,515.028C393.56,515.302 392.807,514.765 392.243,515.038C393.393,514.151 393.307,514.217 394.471,513.454Z" style="fill:rgb(140,15,15);fill-opacity:0.27;"/>
                <path d="M421.46,59.438C421.132,59.775 420.804,60.112 420.475,60.449C419.848,60.415 419.22,60.381 418.593,60.347C419.548,60.044 420.504,59.741 421.46,59.438Z" style="fill:rgb(175,13,13);fill-opacity:0.16;"/>
                <path d="M457.5,521.5C458.467,521.894 459.435,522.288 460.402,522.682L459.432,522.633C458.26,522.266 458.376,522.298 457.5,521.5Z" style="fill:rgb(197,13,13);fill-opacity:0.18;"/>
                <path d="M459.432,522.633L460.402,522.682C461.064,523.024 461.727,523.367 462.389,523.71L461.432,523.636C460.24,523.323 460.366,523.341 459.432,522.633Z" style="fill:rgb(188,12,12);fill-opacity:0.18;"/>
                <path d="M675.362,1.784C676.075,1.689 676.788,1.594 677.501,1.499L677.555,2.439C676.389,2.23 676.448,2.357 675.362,1.784Z" style="fill:rgb(224,14,14);fill-opacity:0.26;"/>
                <path d="M163.469,2.454C162.594,3.171 162.567,2.977 161.749,3.672C161.989,1.338 162.88,2.254 163.469,2.454Z" style="fill:rgb(141,15,15);fill-opacity:0.25;"/>
                <path d="M523.41,542.444C522.483,543.52 522.579,543.42 521.51,544.512L521.69,543.716C522.263,543.292 522.837,542.868 523.41,542.444Z" style="fill:rgb(185,12,12);fill-opacity:0.22;"/>
                <path d="M677.501,1.499C678.32,2.341 678.31,2.296 678.64,3.415C678.278,3.09 677.917,2.765 677.555,2.439L677.501,1.499Z" style="fill:rgb(220,15,15);fill-opacity:0.1;"/>
                <path d="M357.628,532.798C358.896,532.238 358.818,532.266 360.278,532.116C358.994,532.706 359.124,533.026 357.628,532.798Z" style="fill:rgb(138,17,17);fill-opacity:0.31;"/>
                <path d="M280.549,3.088C282.628,3.022 282.532,3.066 284.494,3.537L280.549,3.088Z" style="fill:rgb(137,14,14);fill-opacity:0.4;"/>
                <path d="M503.64,542.158C505.14,541.908 505.041,542.06 506.444,542.676C505.509,542.503 504.574,542.33 503.64,542.158Z" style="fill:rgb(206,9,9);fill-opacity:0.2;"/>
                <path d="M679.431,202.464C679.127,202.816 678.823,203.167 678.519,203.518L677.609,203.625C678.216,203.238 678.824,202.851 679.431,202.464Z" style="fill:rgb(215,14,14);fill-opacity:0.15;"/>
                <path d="M500.675,541.148C502.157,540.924 502.056,541.076 503.436,541.694C502.516,541.512 501.595,541.33 500.675,541.148Z" style="fill:rgb(204,9,9);fill-opacity:0.21;"/>
                <path d="M442.493,512.51C443.138,512.881 443.784,513.252 444.429,513.624C443.294,513.27 443.401,513.304 442.493,512.51Z" style="fill:rgb(201,13,13);fill-opacity:0.16;"/>
                <path d="M450.496,39.489C449.837,39.835 449.179,40.182 448.52,40.528C449.46,39.737 449.357,39.764 450.496,39.489Z" style="fill:rgb(205,13,13);fill-opacity:0.18;"/>
                <path d="M677.609,203.625L678.519,203.518C677.85,203.856 677.18,204.194 676.511,204.531C676.877,204.229 677.243,203.927 677.609,203.625Z" style="fill:rgb(203,13,13);fill-opacity:0.2;"/>
                <path d="M465.466,525.57C466.641,525.783 466.578,525.802 467.504,526.487C466.825,526.182 466.146,525.876 465.466,525.57Z" style="fill:rgb(193,13,13);fill-opacity:0.22;"/>
                <path d="M439.525,510.471C440.159,510.854 440.794,511.238 441.429,511.621C440.794,511.238 440.159,510.854 439.525,510.471Z" style="fill:rgb(200,13,13);fill-opacity:0.19;"/>
                <path d="M442.426,44.373C441.791,44.757 441.156,45.141 440.521,45.525C441.156,45.141 441.791,44.757 442.426,44.373Z" style="fill:rgb(200,13,13);fill-opacity:0.19;"/>
                <path d="M447.434,41.381C446.766,41.712 446.099,42.043 445.431,42.375C446.099,42.043 446.766,41.712 447.434,41.381Z" style="fill:rgb(184,11,11);fill-opacity:0.22;"/>
                <path d="M449.476,516.544C450.132,516.896 450.788,517.248 451.444,517.601C450.788,517.248 450.132,516.896 449.476,516.544Z" style="fill:rgb(187,12,12);fill-opacity:0.25;"/>
                <path d="M328.609,13.144C330.169,13.006 330.027,13.181 331.423,13.72C330.485,13.528 329.547,13.336 328.609,13.144Z" style="fill:rgb(139,14,14);fill-opacity:0.37;"/>
                <path d="M425.513,500.485C426.144,500.874 426.775,501.263 427.405,501.651C426.775,501.263 426.144,500.874 425.513,500.485Z" style="fill:rgb(198,8,8);fill-opacity:0.23;"/>
                <path d="M336.641,540.934L339.408,540.267C338.007,540.865 338.149,541.037 336.641,540.934Z" style="fill:rgb(142,12,12);fill-opacity:0.36;"/>
                <path d="M271.524,2.199C273.105,1.983 273.022,2.05 274.497,2.534L271.524,2.199Z" style="fill:rgb(138,15,15);fill-opacity:0.41;"/>
                <path d="M424.407,57.361C423.782,57.754 423.157,58.147 422.532,58.539C423.157,58.147 423.782,57.754 424.407,57.361Z" style="fill:rgb(189,16,16);fill-opacity:0.25;"/>
                <path d="M288.551,4.123C290.085,3.983 290.02,4.021 291.504,4.475L288.551,4.123Z" style="fill:rgb(137,15,15);fill-opacity:0.4;"/>
                <path d="M420.359,495.889C420.767,496.381 421.175,496.873 421.583,497.365C421.175,496.873 420.767,496.381 420.359,495.889Z" style="fill:rgb(177,12,12);fill-opacity:0.24;"/>
            </g>
        </g>
    </g>
</svg>
