<svg width="19" height="19" viewBox="0 0 19 19" fill="none" xmlns="http://www.w3.org/2000/svg">
<path d="M13.1413 4.88115H13.1488M5.25653 1.50195H12.7659C14.8395 1.50195 16.5205 3.18298 16.5205 5.25662V12.766C16.5205 14.8396 14.8395 16.5206 12.7659 16.5206H5.25653C3.18288 16.5206 1.50186 14.8396 1.50186 12.766V5.25662C1.50186 3.18298 3.18288 1.50195 5.25653 1.50195ZM12.0149 8.5382C12.1076 9.16316 12.0009 9.80143 11.7099 10.3622C11.4189 10.923 10.9585 11.3778 10.3941 11.6618C9.8298 11.9459 9.19026 12.0448 8.56649 11.9444C7.94271 11.844 7.36647 11.5495 6.91973 11.1028C6.47298 10.656 6.17848 10.0798 6.0781 9.456C5.97773 8.83223 6.0766 8.19269 6.36065 7.62835C6.6447 7.06401 7.09946 6.6036 7.66026 6.31262C8.22105 6.02163 8.85933 5.91488 9.48429 6.00756C10.1218 6.10209 10.712 6.39914 11.1677 6.85484C11.6233 7.31054 11.9204 7.90072 12.0149 8.5382Z" stroke="white" stroke-opacity="0.7" stroke-width="1.50187" stroke-linecap="round" stroke-linejoin="round"/>
</svg>
