<svg width="17" height="17" viewBox="0 0 17 17" fill="none" xmlns="http://www.w3.org/2000/svg">
<g clip-path="url(#clip0_404_4844)">
<path d="M9.11905 1.013C9.97058 1 10.8159 1.00676 11.6606 1C11.6887 2.05648 12.1174 3.00737 12.7993 3.71169L12.7983 3.71065C13.5322 4.37179 14.4873 4.80042 15.5401 4.87325L15.5547 4.87429V7.4939C14.5601 7.46894 13.6248 7.23954 12.7816 6.84524L12.8243 6.86293C12.4165 6.66682 12.0716 6.46551 11.7439 6.2408L11.7709 6.25848C11.7647 8.15661 11.7772 10.0547 11.7579 11.9461C11.7043 12.91 11.3839 13.7891 10.87 14.5231L10.8804 14.5069C10.021 15.7377 8.62904 16.5455 7.04614 16.5934H7.03886C6.97487 16.5965 6.89945 16.5981 6.8235 16.5981C5.92359 16.5981 5.08247 16.3473 4.36566 15.9119L4.38647 15.9239C3.08186 15.139 2.18195 13.7959 2.0155 12.2338L2.01342 12.2124C2.00041 11.8873 1.99417 11.5622 2.00717 11.2439C2.26206 8.75794 4.34485 6.83484 6.87656 6.83484C7.1611 6.83484 7.43991 6.85929 7.71093 6.90558L7.6818 6.90142C7.6948 7.86323 7.65579 8.82556 7.65579 9.78737C7.43575 9.70778 7.18191 9.66149 6.91714 9.66149C5.94544 9.66149 5.11888 10.2826 4.81301 11.1497L4.80833 11.1653C4.73915 11.3874 4.6991 11.6428 4.6991 11.9071C4.6991 12.0143 4.70586 12.1204 4.71834 12.2244L4.7173 12.2119C4.89 13.2762 5.80239 14.0794 6.90257 14.0794C6.9343 14.0794 6.96551 14.0788 6.99672 14.0773H6.99204C7.75306 14.0544 8.41369 13.645 8.78718 13.04L8.79238 13.0307C8.93126 12.8372 9.02646 12.6031 9.05819 12.3487L9.05871 12.3414C9.12373 11.1778 9.09772 10.0209 9.10396 8.85729C9.11021 6.23767 9.09772 3.6243 9.11697 1.01144L9.11905 1.013Z" fill="white" fill-opacity="0.7"/>
</g>
<defs>
<clipPath id="clip0_404_4844">
<rect width="16.6457" height="16.6457" fill="white"/>
</clipPath>
</defs>
</svg>
