<svg width="18" height="18" viewBox="0 0 18 18" fill="none" xmlns="http://www.w3.org/2000/svg">
<path d="M13.125 4.86837H13.1325M5.25 1.49805H12.75C14.8211 1.49805 16.5 3.17465 16.5 5.24285V12.7324C16.5 14.8006 14.8211 16.4772 12.75 16.4772H5.25C3.17893 16.4772 1.5 14.8006 1.5 12.7324V5.24285C1.5 3.17465 3.17893 1.49805 5.25 1.49805ZM12 8.5158C12.0926 9.13912 11.9859 9.77571 11.6953 10.335C11.4047 10.8944 10.9449 11.3479 10.3812 11.6312C9.81758 11.9145 9.17884 12.0131 8.55584 11.913C7.93284 11.8129 7.35732 11.5192 6.91113 11.0736C6.46494 10.628 6.1708 10.0533 6.07055 9.43119C5.9703 8.80906 6.06905 8.1712 6.35274 7.60834C6.63644 7.04548 7.09064 6.58628 7.65074 6.29606C8.21084 6.00584 8.84832 5.89937 9.4725 5.9918C10.1092 6.08609 10.6986 6.38236 11.1538 6.83686C11.6089 7.29136 11.9056 7.87999 12 8.5158Z" stroke="black" stroke-opacity="0.35" stroke-width="1.49792" stroke-linecap="round" stroke-linejoin="round"/>
</svg>
