<svg width="18" height="14" viewBox="0 0 18 14" fill="none" xmlns="http://www.w3.org/2000/svg">
<path d="M14.3083 0.380744C10.6457 -0.126915 6.87685 -0.126915 3.21321 0.380744C1.70155 0.590384 0.524505 1.74011 0.286728 3.24249C0.096829 4.44863 0 5.68018 0 6.90035C0 8.12052 0.0958905 9.36428 0.291421 10.5779C0.524565 12.0464 1.726 13.213 3.21333 13.42C5.04465 13.6747 6.91259 13.8026 8.76089 13.8026C10.6092 13.8026 12.477 13.6747 14.3085 13.42C15.8173 13.2103 16.9914 12.07 17.2304 10.5779C17.425 9.36522 17.5218 8.12798 17.5218 6.90035C17.5218 5.67272 17.4259 4.43643 17.2304 3.22275C16.9972 1.75431 15.7957 0.587715 14.3083 0.380744ZM11.8942 7.3167L6.87878 10.2121C6.80451 10.2554 6.72272 10.277 6.63811 10.277C6.5535 10.277 6.47171 10.2554 6.39745 10.2121C6.24797 10.1275 6.15678 9.96866 6.15678 9.79567V4.00552C6.15678 3.83254 6.24797 3.67366 6.39745 3.58905C6.54692 3.50256 6.7293 3.50256 6.87878 3.58905L11.8942 6.48448C12.0437 6.56909 12.1349 6.72984 12.1349 6.90095C12.1349 7.07205 12.0437 7.23281 11.8942 7.31742V7.3167Z" fill="black" fill-opacity="0.35"/>
</svg>
