<svg width="16" height="18" viewBox="0 0 16 18" fill="none" xmlns="http://www.w3.org/2000/svg">
<path d="M8.12594 0.0148438C9.09791 5.64032e-08 10.0628 0.00771875 11.027 0C11.0591 1.20591 11.5483 2.29128 12.3267 3.09522L12.3255 3.09403C13.1633 3.84869 14.2534 4.33794 15.4552 4.42106L15.4718 4.42225V7.41238C14.3366 7.38388 13.269 7.12203 12.3065 6.67197L12.3552 6.69216C11.8897 6.46831 11.4961 6.23853 11.122 5.98203L11.1529 6.00222C11.1458 8.16881 11.16 10.3354 11.138 12.4943C11.0769 13.5945 10.7111 14.5979 10.1245 15.4357L10.1364 15.4173C9.1555 16.8221 7.56663 17.7442 5.75984 17.7988H5.75153C5.6785 17.8024 5.59241 17.8042 5.50572 17.8042C4.47853 17.8042 3.51844 17.518 2.70025 17.021L2.724 17.0347C1.23488 16.1387 0.207689 14.6057 0.0176889 12.8226L0.0153139 12.7983C0.000470133 12.4272 -0.00665492 12.0561 0.00818883 11.6927C0.299126 8.85519 2.6765 6.66009 5.56628 6.66009C5.89106 6.66009 6.20931 6.688 6.51866 6.74084L6.48541 6.73609C6.50025 7.83394 6.45572 8.93238 6.45572 10.0302C6.20456 9.93938 5.91481 9.88653 5.6126 9.88653C4.50347 9.88653 3.56 10.5955 3.21088 11.5853L3.20553 11.6031C3.12656 11.8566 3.08085 12.1481 3.08085 12.4498C3.08085 12.5721 3.08856 12.6932 3.10281 12.8119L3.10163 12.7977C3.29875 14.0125 4.34019 14.9293 5.59597 14.9293C5.63219 14.9293 5.66781 14.9287 5.70344 14.9269H5.6981C6.56675 14.9008 7.32081 14.4335 7.74713 13.7429L7.75306 13.7323C7.91159 13.5114 8.02025 13.2442 8.05647 12.9538L8.05706 12.9455C8.13128 11.6173 8.1016 10.2968 8.10872 8.96859C8.11585 5.97847 8.1016 2.99547 8.12356 0.0130625L8.12594 0.0148438Z" fill="black" fill-opacity="0.35"/>
</svg>
